This East German story of a party leader in disgrace and a cynical leader of a worker brigade offered only the mildest criticism of the communist system, but was barred from being shown when it was made in 1966. Not only that, but its director Frank Beyer was forbidden to make films for a decade. In the story, a married Communist party secretary (i.e., a government big-wig) with a family of his own has fallen into disgrace as a result of having an affair with a young women and getting her pregnant. Consequently, he is accused of "immoral behavior, careerism and political and ideological failure." Strong, if puzzling words. Another type of man entirely is also in love with the young woman. He is the "brigade leader" (foreman) of a construction crew. His cynicism about the party's role in the workplace is possibly one of the reasons the film was banned until 1990.

   General
      Complete name : Spur der Steine.avi
      Format : AVI
      Format/Info : Audio Video Interleave
      File size : 1.37 GiB
      Duration : 2h 13mn
      Overall bit rate : 1 471 Kbps
      Writing application : FairUse Wizard - http://fairusewizard.com
      Writing library : The best and REALLY easy backup tool
   Video #0
      ID : 0
      Format : MPEG-4 Visual
      Format profile : AdvancedSimple@L5
      Format settings, BVOP : Yes
      Format settings, QPel : No
      Format settings, GMC : No warppoints
      Format settings, Matrix : Default (H.263)
      Muxing mode : Packed bitstream
      Codec ID : XVID
      Codec ID/Hint : XviD
      Duration : 2h 13mn
      Bit rate : 1 269 Kbps
      Width : 608 pixels
      Height : 432 pixels
      Display aspect ratio : 1.407
      Frame rate : 25.000 fps
      Resolution : 24 bits
      Colorimetry : 4:2:0
      Scan type : Progressive
      Bits/(Pixel*Frame) : 0.193
      Stream size : 1.18 GiB (86%)
      Writing library : XviD 1.2.0.dev47 (UTC 2006-11-01)
   Audio #1
      ID : 1
      Format : MPEG Audio
      Format version : Version 1
      Format profile : Layer 3
      Codec ID : 55
      Codec ID/Hint : MP3
      Duration : 2h 13mn
      Bit rate mode : Constant
      Bit rate : 192 Kbps
      Channel(s) : 2 channels
      Sampling rate : 48.0 KHz
      Resolution : 16 bits
      Stream size : 183 MiB (13%)
      Alignment : Aligned on interleaves
      Interleave, duration : 40 ms (1.00 video frame)
      Interleave, preload duration : 504 ms
      Writing library : LAME3.97 
      Encoding settings : -m j -V 4 -q 2 -lowpass 18.6 -b 192

IMDB: tt0061017

German audio; English, French, Spanish and Portuguese srt subtitles, multilanguage (Arabic, Deutsch. English, Español, Fraçais, Italiano, Japanese, Português, Russian, Chinese, Turkish) subpack.

Posted originally at KG by twister27